<svg width="1136" height="1395" xmlns="http://www.w3.org/2000/svg" xmlns:xlink="http://www.w3.org/1999/xlink" overflow="hidden"><defs><clipPath id="clip0"><rect x="769" y="1460" width="1136" height="1395"/></clipPath></defs><g clip-path="url(#clip0)" transform="translate(-769 -1460)"><text font-family="Cambria Math,Cambria Math_MSFontService,sans-serif" font-weight="400" font-size="73" transform="matrix(1 0 0 1 1640.47 1800)">j<tspan font-size="55" x="-191.993" y="-164">ρ</tspan><tspan font-size="37" x="-162.728" y="-151">j</tspan></text><path d="M0 0 555.57 954.073" stroke="#000000" stroke-width="5.72917" stroke-linecap="round" stroke-miterlimit="8" stroke-dasharray="17.1875 22.9167" fill="none" fill-rule="evenodd" transform="matrix(-1 0 0 1 1614.57 1731)"/><path d="M1051.5 1614C1051.5 1585.56 1177.31 1562.5 1332.5 1562.5 1487.69 1562.5 1613.5 1585.56 1613.5 1614 1613.5 1642.44 1487.69 1665.5 1332.5 1665.5 1177.31 1665.5 1051.5 1642.44 1051.5 1614Z" stroke="#000000" stroke-width="4.58333" stroke-miterlimit="8" stroke-dasharray="18.3333 13.75" fill="none" fill-rule="evenodd"/><path d="M1057.5 2689C1057.5 2660.56 1183.31 2637.5 1338.5 2637.5 1493.69 2637.5 1619.5 2660.56 1619.5 2689 1619.5 2717.44 1493.69 2740.5 1338.5 2740.5 1183.31 2740.5 1057.5 2717.44 1057.5 2689Z" stroke="#000000" stroke-width="4.58333" stroke-miterlimit="8" stroke-dasharray="18.3333 13.75" fill="none" fill-rule="evenodd"/><path d="M770.5 1603C770.5 1524.85 1024.13 1461.5 1337 1461.5 1649.87 1461.5 1903.5 1524.85 1903.5 1603 1903.5 1681.15 1649.87 1744.5 1337 1744.5 1024.13 1744.5 770.5 1681.15 770.5 1603Z" stroke="#000000" stroke-width="3.4375" stroke-miterlimit="8" stroke-dasharray="10.3125 3.4375" fill="none" fill-rule="evenodd"/><path d="M770.5 2712C770.5 2633.85 1024.13 2570.5 1337 2570.5 1649.87 2570.5 1903.5 2633.85 1903.5 2712 1903.5 2790.15 1649.87 2853.5 1337 2853.5 1024.13 2853.5 770.5 2790.15 770.5 2712Z" stroke="#000000" stroke-width="3.4375" stroke-miterlimit="8" stroke-dasharray="10.3125 3.4375" fill="none" fill-rule="evenodd"/><path d="M1607.5 1722.5C1607.5 1717.53 1610.86 1713.5 1615 1713.5 1619.14 1713.5 1622.5 1717.53 1622.5 1722.5 1622.5 1727.47 1619.14 1731.5 1615 1731.5 1610.86 1731.5 1607.5 1727.47 1607.5 1722.5Z" stroke="#000000" stroke-width="4.58333" stroke-miterlimit="8" fill-rule="evenodd"/><path d="M1049.5 2691.5C1049.5 2686.53 1052.86 2682.5 1057 2682.5 1061.14 2682.5 1064.5 2686.53 1064.5 2691.5 1064.5 2696.47 1061.14 2700.5 1057 2700.5 1052.86 2700.5 1049.5 2696.47 1049.5 2691.5Z" stroke="#000000" stroke-width="4.58333" stroke-miterlimit="8" fill-rule="evenodd"/><text font-family="Cambria Math,Cambria Math_MSFontService,sans-serif" font-weight="400" font-size="73" transform="matrix(1 0 0 1 1011.57 2709)">i</text><path d="M1366.41 1626.4C1340.45 1647.16 1300.35 1640.17 1276.83 1610.78" stroke="#000000" stroke-width="2.29167" stroke-linecap="round" stroke-miterlimit="8" fill="none" fill-rule="evenodd"/><path d="M905 1612.5C905 1560.31 1094.61 1518 1328.5 1518 1562.39 1518 1752 1560.31 1752 1612.5 1752 1664.69 1562.39 1707 1328.5 1707 1094.61 1707 905 1664.69 905 1612.5Z" stroke="#000000" stroke-width="5.72917" stroke-miterlimit="8" fill="none" fill-rule="evenodd"/><path d="M1752 1612 1757.89 2696.6" stroke="#000000" stroke-width="5.72917" stroke-miterlimit="8" fill="none" fill-rule="evenodd"/><path d="M904 1615 911.791 2690.58" stroke="#000000" stroke-width="5.72917" stroke-miterlimit="8" fill="none" fill-rule="evenodd"/><path d="M910 2696.5C910 2644.31 1099.83 2602 1334 2602 1568.17 2602 1758 2644.31 1758 2696.5 1758 2748.69 1568.17 2791 1334 2791 1099.83 2791 910 2748.69 910 2696.5Z" stroke="#000000" stroke-width="5.72917" stroke-miterlimit="8" fill="none" fill-rule="evenodd"/><path d="M0 0 254.996 70.5981" stroke="#000000" stroke-width="2.29167" stroke-linecap="round" stroke-miterlimit="8" fill="none" fill-rule="evenodd" transform="matrix(1 0 0 -1 1322 1607.6)"/><path d="M1321 1608 1612.87 1722.46" stroke="#000000" stroke-width="2.29167" stroke-linecap="round" stroke-miterlimit="8" fill="none" fill-rule="evenodd"/><path d="M0 0 270.772 5.44695" stroke="#000000" stroke-width="2.29167" stroke-linecap="round" stroke-miterlimit="8" fill="none" fill-rule="evenodd" transform="matrix(1 0 0 -1 1051 1613.45)"/><text font-family="Symbol,Symbol_MSFontService,sans-serif" font-weight="400" font-size="55" transform="matrix(1 0 0 1 1267.25 1655)"><tspan font-family="Cambria Math,Cambria Math_MSFontService,sans-serif" font-size="55" x="196.157" y="-97">r</tspan><tspan font-family="Cambria Math,Cambria Math_MSFontService,sans-serif" font-size="55" x="-80.1285" y="-54">ρ</tspan><tspan font-family="Cambria Math,Cambria Math_MSFontService,sans-serif" font-size="37" x="-50.8639" y="-41">i</tspan><tspan font-family="Cambria Math,Cambria Math_MSFontService,sans-serif" font-size="73" x="72.0739" y="441">r</tspan><tspan font-family="Cambria Math,Cambria Math_MSFontService,sans-serif" font-size="49" x="102.393" y="458">ij</tspan><tspan font-family="Cambria Math,Cambria Math_MSFontService,sans-serif" font-size="73" x="378.679" y="583">z</tspan><tspan font-family="Cambria Math,Cambria Math_MSFontService,sans-serif" font-size="49" x="412.023" y="600">ij</tspan></text><path d="M1612 1722 1620.81 2841.75" stroke="#000000" stroke-width="5.72917" stroke-miterlimit="8" stroke-dasharray="22.9167 17.1875" fill="none" fill-rule="evenodd"/><path d="M1057 2694 1615.68 2834.43" stroke="#000000" stroke-width="5.72917" stroke-linecap="round" stroke-miterlimit="8" stroke-dasharray="17.1875 22.9167" fill="none" fill-rule="evenodd"/><text font-family="Cambria Math,Cambria Math_MSFontService,sans-serif" font-weight="400" font-size="73" transform="matrix(1 0 0 1 1242.43 2726)">ρ<tspan font-size="49" x="39.027" y="17">ij</tspan></text></g></svg>