<svg width="1354" height="1360" xmlns="http://www.w3.org/2000/svg" xmlns:xlink="http://www.w3.org/1999/xlink" overflow="hidden"><defs><clipPath id="clip0"><rect x="795" y="1791" width="1354" height="1360"/></clipPath></defs><g clip-path="url(#clip0)" transform="translate(-795 -1791)"><path d="M1433.52 2378C1438.74 2400.89 1428.35 2422.79 1410.31 2426.9" stroke="#000000" stroke-width="3.4375" stroke-miterlimit="8" stroke-dasharray="10.3125 3.4375" fill="none" fill-rule="evenodd"/><path d="M1696.5 2131.5C1696.5 2127.08 1700.31 2123.5 1705 2123.5 1709.69 2123.5 1713.5 2127.08 1713.5 2131.5 1713.5 2135.92 1709.69 2139.5 1705 2139.5 1700.31 2139.5 1696.5 2135.92 1696.5 2131.5Z" stroke="#000000" stroke-width="4.58333" stroke-miterlimit="8" fill-rule="evenodd"/><path d="M1000.5 2403C1000.5 2179.6 1181.6 1998.5 1405 1998.5 1628.4 1998.5 1809.5 2179.6 1809.5 2403 1809.5 2626.4 1628.4 2807.5 1405 2807.5 1181.6 2807.5 1000.5 2626.4 1000.5 2403Z" stroke="#000000" stroke-width="6.875" stroke-miterlimit="8" stroke-dasharray="20.625 6.875" fill="none" fill-rule="evenodd"/><path d="M884 2404C884 2115.16 1118.16 1881 1407 1881 1695.84 1881 1930 2115.16 1930 2404 1930 2692.84 1695.84 2927 1407 2927 1118.16 2927 884 2692.84 884 2404Z" stroke="#000000" stroke-width="5.72917" stroke-miterlimit="8" fill="none" fill-rule="evenodd"/><path d="M798.5 2404.5C798.5 2067.61 1071.38 1794.5 1408 1794.5 1744.62 1794.5 2017.5 2067.61 2017.5 2404.5 2017.5 2741.39 1744.62 3014.5 1408 3014.5 1071.38 3014.5 798.5 2741.39 798.5 2404.5Z" stroke="#000000" stroke-width="6.875" stroke-miterlimit="8" stroke-dasharray="20.625 6.875" fill="none" fill-rule="evenodd"/><path d="M0 0 300.881 269.077" stroke="#000000" stroke-width="3.4375" stroke-miterlimit="8" fill="none" fill-rule="evenodd" transform="matrix(1 0 0 -1 1404.5 2402.58)"/><path d="M1404.35 2401.59 1037.5 2034.5" stroke="#000000" stroke-width="3.4375" stroke-miterlimit="8" fill="none" fill-rule="evenodd"/><path d="M1404.5 2401.5 1506.6 3008.62" stroke="#000000" stroke-width="3.4375" stroke-miterlimit="8" fill="none" fill-rule="evenodd"/><path d="M1498.5 3002.5C1498.5 2998.08 1502.31 2994.5 1507 2994.5 1511.69 2994.5 1515.5 2998.08 1515.5 3002.5 1515.5 3006.92 1511.69 3010.5 1507 3010.5 1502.31 3010.5 1498.5 3006.92 1498.5 3002.5Z" stroke="#000000" stroke-width="4.58333" stroke-miterlimit="8" fill-rule="evenodd"/><path d="M0 0 198.865 875.224" stroke="#000000" stroke-width="3.4375" stroke-miterlimit="8" fill="none" fill-rule="evenodd" transform="matrix(-1 0 0 1 1707.37 2131.5)"/><text font-family="Symbol,Symbol_MSFontService,sans-serif" font-weight="400" font-size="83" transform="matrix(1 0 0 1 1461.97 2437)"><tspan font-family="Cambria Math,Cambria Math_MSFontService,sans-serif" font-size="83" x="277.664" y="-305">i</tspan><tspan font-family="Cambria Math,Cambria Math_MSFontService,sans-serif" font-size="83" x="-241.574" y="-107">r</tspan><tspan font-family="Cambria Math,Cambria Math_MSFontService,sans-serif" font-size="83" x="-0.00146484" y="-192">ρ</tspan><tspan font-family="Cambria Math,Cambria Math_MSFontService,sans-serif" font-size="55" x="43.9069" y="-172">i</tspan><tspan font-family="Cambria Math,Cambria Math_MSFontService,sans-serif" font-size="83" x="-137.948" y="188">ρ</tspan><tspan font-family="Cambria Math,Cambria Math_MSFontService,sans-serif" font-size="55" x="-94.0396" y="208">j</tspan><tspan font-size="83" x="181.714" y="133"></tspan><tspan font-family="Cambria Math,Cambria Math_MSFontService,sans-serif" font-size="55" x="226.998" y="153">ij</tspan><tspan font-family="Cambria Math,Cambria Math_MSFontService,sans-serif" font-size="83" x="37.2942" y="647">j</tspan></text></g></svg>